PathFileType   4   (X/Y/Z)																																																																																																																							
DataRate	CameraRate	NumFrames	NumMarkers	Units	OrigDataRate	OrigDataStartFrame	OrigNumFrames																																																																																																																
120	120	4	37	mm	120	35	136																																																																																																																
Frame#	Time	Sternum	R.Acromium	L.Acromium	Top.Head	R.ASIS	L.ASIS	V.Sacral	R.Thigh.Upper	R.Thigh.Front	R.Thigh.Rear	R.Knee.Lat	R.Knee.Med	R.Shank.Upper	R.Shank.Front	R.Shank.Rear	R.Ankle.Lat	R.Ankle.Med	R.Heel	R.Midfoot.Sup	R.Midfoot.Lat	R.Toe.Lat	R.Toe.Med	R.Toe.Tip	L.Thigh.Upper	L.Thigh.Front	L.Thigh.Rear	L.Knee.Lat	L.Knee.Med	L.Shank.Upper	L.Shank.Front	L.Shank.Rear	L.Ankle.Lat	L.Ankle.Med	L.Heel	L.Midfoot.Sup	L.Midfoot.Lat	L.Toe.Lat	L.Toe.Med	L.Toe.Tip																																																																															
 	 	X1	Y1	Z1	X2	Y2	Z2	X3	Y3	Z3	X4	Y4	Z4	X5	Y5	Z5	X6	Y6	Z6	X7	Y7	Z7	X8	Y8	Z8	X9	Y9	Z9	X10	Y10	Z10	X11	Y11	Z11	X12	Y12	Z12	X13	Y13	Z13	X14	Y14	Z14	X15	Y15	Z15	X16	Y16	Z16	X17	Y17	Z17	X18	Y18	Z18	X19	Y19	Z19	X20	Y20	Z20	X21	Y21	Z21	X22	Y22	Z22	X23	Y23	Z23	X24	Y24	Z24	X25	Y25	Z25	X26	Y26	Z26	X27	Y27	Z27	X28	Y28	Z28	X29	Y29	Z29	X30	Y30	Z30	X31	Y31	Z31	X32	Y32	Z32	X33	Y33	Z33	X34	Y34	Z34	X35	Y35	Z35	X36	Y36	Z36	X37	Y37	Z37	X38	Y38	Z38	X39	Y39	Z39	
																																																																																																																							
	35	0.51667	1729.542126	-0.001000353	1243.73672	1664.497666	-161.6639114	1319.730199	1667.162738	164.9109026	1319.071087	1799.114537	-10.07056321	1526.988384	1708.706313	-126.4287728	877.0061516	1713.99552	128.1563878	868.5061584	1520.438824	-6.022778891	898.6452429	1745.80609	-163.1570236	628.1004633	1819.442115	-74.72940176	602.225955	1788.902535	-154.4047096	524.0561232	1792.9065	-137.316947	436.6638704	1798.6094	-24.75841468	422.1759592	1758.776484	-149.3438724	401.75169	1830.699893	-96.85682453	367.1102515	1773.201423	-158.2831336	319.4545158	1772.44653	-134.0955655	44.30487634	1780.096878	-48.0330811	58.21664563	1710.68934	-83.91925551	20.53928327	1848.460333	-49.92190453	35.20951201	1843.907781	-153.2800315	16.05195387	1930.756966	-162.0397613	-4.717236114	1932.662788	-57.59368751	7.930702872	1991.322969	-88.18151523	9.965988208	1614.565477	167.6781368	591.5023824	1680.955917	97.4394069	542.9139381	1591.118891	153.3828701	492.9339409	1549.549145	138.945524	377.0805501	1550.768831	31.06670304	377.5714975	1544.445709	156.0706667	354.9935305	1577.81427	102.6419486	300.0606351	1520.718305	166.4841022	317.0097109	1483.274344	133.6260322	16.36200073	1491.106578	45.5255286	37.77164441	1409.513768	81.19863714	7.277189989	1575.149758	55.77109965	-4.106851717	1557.502705	150.766436	-2.625835416	1616.348605	160.8566492	-30.03092363	1632.704794	62.45973316	-31.42316363	1679.993908	86.83216932	-34.58964509
	36	0.525	1735.887403	-0.001000353	1243.153135	1670.761161	-161.6639114	1319.076538	1673.426941	164.9109026	1318.420295	1805.154802	-10.07056321	1526.479543	1715.359452	-126.4287728	876.2186703	1720.644435	128.1563878	867.7160507	1527.102735	-6.022778891	897.9512816	1752.372507	-163.1570236	627.3264022	1826.001694	-74.72940176	601.4324418	1795.441464	-154.4047096	523.2706806	1799.422342	-137.316947	435.8773731	1805.121414	-24.75841468	421.3879558	1767.368919	-149.3438724	400.1365471	1840.749252	-96.85682453	368.6987856	1785.407076	-158.2831336	318.5551238	1796.780096	-134.0955655	43.63959427	1803.809851	-48.0330811	57.87503249	1735.555665	-83.91925551	18.58666958	1872.960213	-49.92190453	36.36453378	1868.84147	-153.2800315	17.10904826	1956.13755	-162.0397613	-1.693469847	1957.75725	-57.59368751	10.99428386	2016.356505	-88.18151523	14.35381328	1619.67407	167.6781368	590.726995	1685.68952	97.4394069	541.6302749	1595.471424	153.3828701	492.3414678	1553.013447	138.945524	376.8106402	1554.236866	31.06670304	377.2922091	1547.612046	156.0706667	354.7722487	1580.445422	102.6419486	299.5178072	1523.516792	166.4841022	317.0207062	1483.154144	133.6260322	16.75090664	1491.193979	45.5255286	38.08345888	1409.342853	81.19863714	8.075616808	1574.91597	55.77109965	-4.188988143	1557.277042	150.766436	-2.614159393	1615.976391	160.8566492	-30.3317572	1632.324946	62.45973316	-31.8109471	1679.596555	86.83216932	-35.22883075
	37	0.53333	1742.272571	-0.001000353	1242.553064	1677.059538	-161.6639114	1318.401933	1679.726067	164.9109026	1317.74874	1811.215886	-10.07056321	1525.958507	1722.077098	-126.4287728	875.4134893	1727.35841	128.1563878	866.9085885	1533.829783	-6.022778891	897.2273834	1758.927663	-163.1570236	626.4579002	1832.536677	-74.72940176	600.5066521	1801.915634	-154.4047096	522.3686955	1805.828505	-137.316947	434.9723166	1811.5163	-24.75841468	420.4784689	1775.76761	-149.3438724	398.5263784	1850.394146	-96.85682453	370.1734902	1797.189391	-158.2831336	317.7674096	1820.007561	-134.0955655	43.56451918	1826.438056	-48.0330811	58.08050632	1759.268318	-83.91925551	17.40296184	1896.292843	-49.92190453	37.90519511	1892.557189	-153.2800315	18.5717358	1980.209347	-162.0397613	1.506000046	1981.576839	-57.59368751	14.22340882	2040.09785	-88.18151523	18.74563878	1624.907274	167.6781368	589.9396981	1690.557667	97.4394069	540.3558954	1599.977368	153.3828701	491.7359312	1556.665779	138.945524	376.5223982	1557.892728	31.06670304	376.9949022	1550.928407	156.0706667	354.5381091	1583.199519	102.6419486	298.9534065	1526.451392	166.4841022	317.0329632	1483.044491	133.6260322	17.18810854	1491.300338	45.5255286	38.4379963	1409.182611	81.19863714	8.94202441	1574.684842	55.77109965	-4.244674348	1557.05496	150.766436	-2.571616745	1615.599004	160.8566492	-30.61575475	1631.939066	62.45973316	-32.18598727	1679.190903	86.83216932	-35.8671327
	38	0.54167	1748.702035	-0.001000353	1241.940534	1683.398706	-161.6639114	1317.711675	1686.066011	164.9109026	1317.061658	1817.307743	-10.07056321	1525.427892	1728.857867	-126.4287728	874.5979515	1734.136102	128.1563878	866.0911414	1540.618452	-6.022778891	896.4799205	1765.485519	-163.1570236	625.5148905	1839.063404	-74.72940176	599.475516	1808.348815	-154.4047096	521.3742833	1812.157028	-137.316947	433.9732816	1817.827463	-24.75841468	419.4726333	1783.976598	-149.3438724	396.9364511	1859.650433	-96.85682453	371.5105456	1808.52638	-158.2831336	317.0727427	1842.002976	-134.0955655	43.96614902	1847.863435	-48.0330811	58.72149292	1781.70056	-83.91925551	16.85065105	1918.347385	-49.92190453	39.73530375	1914.948883	-153.2800315	20.33973872	2002.884863	-162.0397613	4.802568493	2004.030744	-57.59368751	17.54185719	2062.464155	-88.18151523	23.08222254	1630.265931	167.6781368	589.1461147	1695.562055	97.4394069	539.0967025	1604.638293	153.3828701	491.1221163	1560.508475	138.945524	376.2195007	1561.738753	31.06670304	376.6832675	1554.397131	156.0706667	354.2958269	1586.078612	102.6419486	298.3729545	1529.524856	166.4841022	317.0516312	1482.94942	133.6260322	17.68258687	1491.42953	45.5255286	38.8439779	1409.037107	81.19863714	9.888545834	1574.459109	55.77109965	-4.269097352	1556.839348	150.766436	-2.492615941	1615.217821	160.8566492	-30.8798091	1631.548387	62.45973316	-32.54589851	1678.777809	86.83216932	-36.50425558
